<svg width="31" height="33" viewBox="0 0 31 33" fill="none" xmlns="http://www.w3.org/2000/svg">
<path d="M6.53402 5.5L7.14327 5.50403C7.3315 5.50851 7.5045 5.5173 7.66044 5.53625C7.98894 5.57618 8.30626 5.66583 8.59766 5.8894C8.88906 6.11298 9.06871 6.40548 9.20817 6.72461C9.34058 7.02761 9.46062 7.4113 9.59794 7.84985L10.3005 10.095C10.4133 10.4552 10.2302 10.845 9.89185 10.9651C9.55347 11.0852 9.18726 10.8902 9.07446 10.53L8.37187 8.28491C8.22523 7.81663 8.13171 7.52015 8.0376 7.30469C7.9504 7.10516 7.88895 7.04121 7.84208 7.00525C7.79523 6.96931 7.71923 6.92815 7.51412 6.9032C7.40307 6.8897 7.27372 6.88266 7.11426 6.87903L6.53402 6.875H4.52083C4.16415 6.875 3.875 6.5672 3.875 6.1875C3.875 5.8078 4.16415 5.5 4.52083 5.5H6.53402Z" fill="white"/>
<path d="M18.7292 19.25C19.0859 19.25 19.375 19.5578 19.375 19.9375C19.375 20.3172 19.0859 20.625 18.7292 20.625H11.7688C11.5488 20.625 11.4722 20.6252 11.4068 20.6304C10.6789 20.6876 10.0433 21.1757 9.76197 21.8926C9.73673 21.957 9.71165 22.0345 9.64214 22.2565C9.57632 22.4667 9.56192 22.5162 9.55636 22.5438C9.47667 22.9414 9.73694 23.3257 10.1164 23.371C10.1428 23.3741 10.1914 23.375 10.399 23.375H22.6042C22.9609 23.375 23.25 23.6828 23.25 24.0625C23.25 24.4422 22.9609 24.75 22.6042 24.75H10.399C10.2301 24.75 10.0895 24.7505 9.97262 24.7366C8.83418 24.6009 8.05462 23.4491 8.29371 22.2565C8.3183 22.1341 8.3627 21.9918 8.41606 21.8214C8.479 21.6204 8.52199 21.4859 8.56995 21.3635C9.0387 20.1681 10.0986 19.3546 11.3122 19.2594C11.4365 19.2497 11.5697 19.25 11.7688 19.25H18.7292Z" fill="white"/>
<path d="M19.8014 9.625C21.2644 9.625 22.4369 9.62292 23.3081 9.76062C24.1851 9.89932 24.946 10.2067 25.3755 10.9946C25.805 11.7826 25.6774 12.6382 25.3553 13.5177C25.0354 14.3912 24.4527 15.4729 23.7269 16.825L23.3611 17.5071C23.0045 18.1713 22.7145 18.7133 22.4352 19.1318C22.1476 19.5628 21.842 19.9081 21.4337 20.1604C21.0254 20.4125 20.593 20.5233 20.0991 20.5753C19.6191 20.6259 19.0331 20.625 18.3142 20.625H14.3863C13.574 20.625 12.9134 20.6263 12.3769 20.5646C11.8247 20.5011 11.3447 20.3658 10.9048 20.057C10.465 19.7482 10.1591 19.3314 9.88687 18.8163C9.62235 18.3156 9.36282 17.669 9.04299 16.8746L8.82603 16.3335C8.31164 15.0558 7.89548 14.0255 7.69078 13.1995C7.48305 12.361 7.44956 11.5669 7.8863 10.8617C8.32321 10.1563 9.02277 9.87557 9.82884 9.74854C10.6227 9.6235 11.6755 9.625 12.9811 9.625H19.8014ZM12.9811 11C11.6329 11 10.6949 11.0022 10.0181 11.1088C9.35395 11.2134 9.10223 11.3962 8.96479 11.6177C8.82744 11.8394 8.76825 12.1576 8.93956 12.849C9.11407 13.5532 9.48188 14.4718 10.013 15.791L10.2312 16.3335C10.562 17.1551 10.7908 17.7211 11.0133 18.1422C11.2282 18.5488 11.4092 18.7636 11.6162 18.9089C11.8233 19.0543 12.0799 19.1476 12.5156 19.1976C12.967 19.2495 13.5462 19.25 14.3863 19.25H18.3142C19.0583 19.25 19.5699 19.2494 19.9717 19.207C20.3589 19.1663 20.5925 19.091 20.7853 18.972C20.9783 18.8528 21.1563 18.6736 21.3819 18.3356C21.6158 17.9852 21.8705 17.5127 22.2397 16.825L22.6055 16.1428C23.3529 14.7504 23.8752 13.7738 24.152 13.0182C24.4265 12.2687 24.3883 11.924 24.2579 11.6848C24.1275 11.4456 23.8652 11.239 23.1176 11.1209C22.364 11.0018 21.3078 11 19.8014 11H12.9811Z" fill="white"/>
<path d="M23.2498 27.5C23.2498 28.2594 22.6715 28.875 21.9582 28.875C21.2448 28.875 20.6665 28.2594 20.6665 27.5C20.6665 26.7406 21.2448 26.125 21.9582 26.125C22.6715 26.125 23.2498 26.7406 23.2498 27.5Z" fill="white"/>
<path d="M12.9168 27.5C12.9168 28.2594 12.3385 28.875 11.6252 28.875C10.9118 28.875 10.3335 28.2594 10.3335 27.5C10.3335 26.7406 10.9118 26.125 11.6252 26.125C12.3385 26.125 12.9168 26.7406 12.9168 27.5Z" fill="white"/>
</svg>
